<?xml version="1.0" encoding="UTF-8"?><svg enable-background="new 0 0 24 24" version="1.1" viewBox="0 0 24 24" xmlns="http://www.w3.org/2000/svg"><!-- Based on "Rocket(outlined)" and "Hide Source" icons from Google Fonts Material Symbols -->><path d="m12 2s-2.0093 0.80716-3.4805 3.6895l1.502 1.502c0.86964-2.0757 1.9785-2.832 1.9785-2.832s2.7402 1.8493 2.9824 7.793l5.0176 5.0176v-1.0996c0-0.66-0.33063-1.2902-0.89062-1.6602l-2.1094-1.4102c0-9-5-11-5-11zm-9.1895 0.81055-1.4199 1.4102 5.8125 5.8125c-0.12953 0.89242-0.20312 1.8767-0.20312 2.9668l-2.1094 1.4102c-0.56 0.37-0.89062 0.99016-0.89062 1.6602v5.9297l5-2h6l3.6172 1.4473 1.1621 1.1621 1.4102-1.4102-1.1895-1.1895-1.4199-1.4219-2.0703-2.0703v-0.001953l-3.6934-3.6934-2.5996-2.6016-0.039063-0.039062-1.4766-1.4766-0.98828-0.99023-4.9023-4.9043zm9.1895 6.1895c-0.054868 0-0.10832 0.0034209-0.16211 0.0078125l2.1543 2.1543c0.00439-0.053786 0.007812-0.10724 0.007812-0.16211 0-1.1-0.9-2-2-2zm-2.9668 2.8633 5.25 5.25c-0.15832 0.53365-0.2832 0.88672-0.2832 0.88672h-4s-1-2.75-1-5c0-0.39661 0.012959-0.77275 0.033203-1.1367zm-1.8125 3.3867c0.19 1.06 0.46977 2.1 0.75977 3l-1.9805 0.80078v-2.9805l1.2207-0.82031z"/></svg>
